<svg width="143" height="44" viewBox="0 0 143 44" fill="none" xmlns="http://www.w3.org/2000/svg">
<path d="M29.8955 24.221C30.1843 24.054 30.5138 23.8443 30.8025 23.676C31.7205 23.0362 32.5627 22.2907 33.3125 21.4543C32.9432 19.1903 32.1012 17.0332 30.8433 15.1284C30.8379 15.1283 30.8325 15.1292 30.8275 15.1312C30.8224 15.1332 30.8179 15.1363 30.8141 15.1402C30.8103 15.1441 30.8073 15.1487 30.8053 15.1538C30.8033 15.1589 30.8024 15.1644 30.8025 15.1699C30.3582 15.6709 29.8607 16.1203 29.3192 16.5099C29.0684 16.706 28.8072 16.8879 28.5368 17.0549C28.4304 17.0932 28.3308 17.1488 28.2417 17.2194C28.3625 17.4311 28.4593 17.6561 28.5305 17.89C28.818 18.685 29.0661 19.4812 29.3129 20.3188C29.6143 21.6006 29.8093 22.906 29.8955 24.221Z" fill="white"/>
<path d="M33.5583 28.7049C33.5577 28.7013 33.5577 28.6977 33.5583 28.6941V28.7049Z" fill="white"/>
<path d="M30.8002 30.2129C31.6556 29.633 32.4674 28.989 33.2288 28.2864C33.4435 27.2942 33.5675 26.2839 33.599 25.2684C33.5989 24.4287 33.5564 23.5895 33.4718 22.7542C32.6797 23.5856 31.7811 24.3046 30.8002 24.8917C30.5201 25.0607 30.2313 25.2146 29.9352 25.3526V25.5623C29.9449 27.2997 29.7371 29.0312 29.3169 30.7152C29.2749 30.8447 29.2342 30.9664 29.1897 31.136C29.2304 31.0932 29.2711 31.0932 29.3169 31.0505C29.8284 30.8038 30.3239 30.524 30.8002 30.2129Z" fill="white"/>
<path d="M35.1495 17.8253C34.6388 15.7679 33.686 13.8515 32.3597 12.2141C32.1818 12.9862 31.8638 13.7177 31.4221 14.3711C32.7026 16.1633 33.6116 18.2019 34.0936 20.3629C34.5672 19.5749 34.923 18.7197 35.1495 17.8253Z" fill="white"/>
<path d="M28.8218 25.8938C28.7404 25.9365 28.617 25.978 28.5343 26.0233C28.1641 26.1527 27.8347 26.2744 27.4632 26.4C26.9289 26.567 26.3513 26.7353 25.775 26.8609C25.3641 26.9451 24.952 27.0279 24.5029 27.1121C23.6681 27.2243 22.8282 27.2931 21.9866 27.318V32.8851C22.828 32.8799 23.6679 32.8102 24.4991 32.6767C24.952 32.5925 25.3641 32.5084 25.7712 32.4177C26.3475 32.2507 26.8844 32.0837 27.4594 31.874C27.6312 31.8221 27.7971 31.7518 27.9542 31.6642C28.194 30.8382 28.3864 29.9987 28.5305 29.1499C28.7125 28.0742 28.81 26.9853 28.8218 25.8938Z" fill="white"/>
<path d="M27.588 32.7698C27.546 32.7698 27.5053 32.8112 27.4607 32.8112C26.9099 33.0174 26.3459 33.1852 25.7726 33.3135L24.5373 33.5647H24.4966C23.6644 33.6847 22.8246 33.7409 21.9841 33.733V35.6492C23.7145 35.5848 25.4184 35.1964 27.0104 34.5034L26.8425 34.5681C27.0486 34.1055 27.2542 33.6441 27.4595 33.1841C27.5053 33.0209 27.546 32.8941 27.588 32.7698Z" fill="white"/>
<path d="M27.4632 15.5052C27.6286 15.8392 27.752 16.1331 27.9174 16.427L28.5344 16.0542C28.805 15.8726 29.0661 15.6769 29.3167 15.4677C29.6898 15.1656 30.0343 14.8289 30.3459 14.4617C30.0248 14.0381 29.6813 13.6327 29.3167 13.2473C29.0699 12.9961 28.7811 12.7436 28.5344 12.4925C28.1956 12.1767 27.8378 11.8827 27.4632 11.6121C27.0523 11.3195 26.6401 11.0269 26.2279 10.7744C26.082 10.8675 25.9307 10.9518 25.7751 11.0269C25.4456 11.2353 25.0347 11.3609 24.5398 11.4878C24.9853 11.9434 25.3982 12.4311 25.7751 12.9469C26.3987 13.7563 26.963 14.6114 27.4632 15.5052Z" fill="white"/>
<path d="M23.5526 11.6909C23.0984 11.7336 22.5641 11.7751 21.9866 11.8204V18.2304C22.8336 18.1586 23.6737 18.0187 24.4991 17.8122C24.9345 17.7306 25.3608 17.6044 25.7712 17.4355C26.1834 17.306 26.5956 17.1001 27.0065 16.9318C26.6444 16.1371 26.2318 15.3673 25.7712 14.6273C25.3949 13.98 24.9695 13.3636 24.4991 12.7836C24.2055 12.4003 23.8894 12.0354 23.5526 11.6909Z" fill="white"/>
<path d="M28.5343 22.042C28.2953 20.671 27.9369 19.3244 27.4632 18.0181C27.4225 17.8886 27.3805 17.8097 27.336 17.6841C26.832 17.9362 26.3087 18.1462 25.7712 18.312C25.3537 18.4481 24.929 18.5601 24.4991 18.6473C23.6767 18.8611 22.8346 18.9874 21.9866 19.0241V26.3158C22.8302 26.317 23.6718 26.2329 24.4991 26.0646C24.9304 26.0254 25.3567 25.9412 25.7712 25.8134C26.3458 25.6897 26.9101 25.5214 27.4594 25.3098C27.8231 25.1888 28.1806 25.0492 28.5305 24.8916C28.6233 24.8417 28.7193 24.7984 28.818 24.7621C28.7811 23.8442 28.6577 22.9159 28.5343 22.042Z" fill="white"/>
<path d="M33.9282 28.0341V28.046C33.9282 28.0367 33.9374 28.0301 33.9413 28.0222L33.9282 28.0341Z" fill="white"/>
<path d="M14.5356 25.1001C15.5574 25.5207 16.6201 25.8301 17.7058 26.0232C18.7551 26.1986 19.8137 26.3105 20.876 26.3585V19.0241C19.808 19.029 18.7434 18.9012 17.7058 18.6435C16.9961 18.4823 16.3056 18.2435 15.6462 17.9314C14.9046 20.1557 14.5764 22.5858 14.5356 25.1001Z" fill="white"/>
<path d="M20.876 33.6904C19.809 33.6229 18.7489 33.4692 17.7058 33.2308C17.0048 33.0625 16.2645 32.8527 15.6055 32.643C16.3471 32.6857 17.0048 32.7284 17.7058 32.7725C18.735 32.8139 19.7641 32.8553 20.876 32.9019V27.3179C19.8098 27.2665 18.7495 27.1262 17.7058 26.8985C16.6109 26.6628 15.5469 26.2973 14.5356 25.8096V25.9766C14.5763 28.1142 14.4084 29.0839 14.5763 31.1321C13.9561 29.2854 13.6632 27.3412 13.7112 25.3901C12.3697 24.6877 11.1798 23.7193 10.2116 22.5418C11.26 23.4593 12.4402 24.2081 13.7112 24.7622C13.752 23.9673 13.8385 23.171 13.9173 22.3321C14.1515 20.7374 14.5236 19.1669 15.0292 17.6388C13.8559 17.0547 12.8158 16.2269 11.976 15.2087C12.9311 16.0426 14.0163 16.7081 15.1869 17.1779C15.8039 15.5026 16.6283 13.8674 17.6994 12.4847C17.9956 12.0791 18.3259 11.7004 18.6866 11.3531C18.3492 11.2032 18.0197 11.0355 17.6994 10.8508C17.2344 10.5729 16.8068 10.2347 16.4273 9.84481H16.468C16.8572 10.0764 17.2723 10.2594 17.7045 10.3899C18.8403 10.7325 20.0197 10.9018 21.2042 10.8922C22.6456 10.8922 23.7154 10.7252 24.4978 10.3899C24.9997 10.2351 25.4435 9.92848 25.77 9.51078C25.9292 9.32496 26.017 9.08672 26.017 8.84013C26.017 8.59355 25.9292 8.35531 25.77 8.16948C25.7399 8.08284 25.6821 8.00899 25.6059 7.95974C25.3374 7.70081 25.1835 7.53638 25.1046 7.44187C23.0119 6.87117 20.8182 6.7982 18.6934 7.22859C16.5685 7.65899 14.5694 8.58122 12.8509 9.9239C11.1324 11.2666 9.74046 12.9937 8.7829 14.9716C7.82535 16.9495 7.32783 19.1251 7.32886 21.33C7.32886 29.0528 13.3576 35.345 20.876 35.648V33.6904Z" fill="white"/>
<path d="M20.876 18.2705V11.8178C20.3483 11.7754 19.825 11.6888 19.3113 11.5588C18.7223 12.1678 18.1852 12.8265 17.7058 13.5281C16.9125 14.7395 16.2755 16.0497 15.8103 17.4264C16.4301 17.6376 17.0635 17.8055 17.7058 17.9287C18.749 18.1477 19.8108 18.2622 20.876 18.2705Z" fill="white"/>
<path d="M30.7999 31.3028C30.3051 31.554 29.8115 31.8466 29.3166 32.0564C29.1621 32.1181 29.011 32.1881 28.8637 32.2661C28.7365 32.56 28.6576 32.894 28.5342 33.1879C28.4528 33.4352 28.332 33.6436 28.2493 33.8896C29.9142 32.9596 31.3785 31.6986 32.5555 30.1816C32.0237 30.5959 31.4106 30.9287 30.7999 31.3028Z" fill="white"/>
<path d="M34.2212 27.4475L34.2031 27.5066C34.2122 27.4869 34.2212 27.4672 34.2289 27.4475H34.2212Z" fill="white"/>
<path d="M27.0524 8.17207C27.1797 8.9683 27.0932 9.63766 26.7637 10.1413C27.0105 10.2708 27.2178 10.4339 27.4634 10.5595C27.8348 10.8184 28.1643 11.0631 28.5345 11.3557C28.7813 11.5654 29.0701 11.7752 29.3169 12.0264C29.8122 12.4873 30.3066 12.99 30.8002 13.5347C30.8315 13.5982 30.8747 13.655 30.9274 13.7017C31.3548 13.0709 31.6727 12.3703 31.8675 11.6302C30.5228 10.1346 28.884 8.94362 27.0575 8.13452L27.0524 8.17207Z" fill="white"/>
<path d="M33.7222 28.4119V28.425L33.7299 28.4119H33.7222Z" fill="white"/>
<path d="M35.5746 21.3301C35.5746 20.7676 35.5423 20.2056 35.4779 19.647C35.1841 20.3785 34.8021 21.07 34.3406 21.7055C34.5467 22.8785 34.5874 24.0942 34.5874 25.3928C34.5874 25.8705 34.5492 26.3483 34.511 26.7898C35.2149 25.0588 35.5763 23.2034 35.5746 21.3301Z" fill="white"/>
<path d="M7.65845 41.3173C8.9306 41.4015 10.3758 41.6954 11.7357 41.4015C13.1351 41.1503 14.3296 40.3528 15.729 39.7261L20.2998 39.0542C18.9005 39.809 17.6283 39.976 16.1819 40.982C12.0652 43.7487 9.84146 42.8684 7.65845 41.3173Z" fill="white"/>
<path d="M3.21216 37.1277C5.2705 38.0909 6.87723 38.8406 9.22308 38.9286C10.9519 39.0128 12.5167 38.8457 14.9478 39.5151C12.8894 39.7261 9.96601 40.4369 7.98909 40.1857C6.95992 40.0187 5.97273 39.5578 5.10766 39.1383L3.21216 37.1277Z" fill="white"/>
<path d="M8.44067 34.1941C8.93554 35.1573 9.38843 36.3316 9.96726 37.1279C11.2025 38.7618 12.9314 39.0971 14.7442 39.5994C13.6323 38.7203 12.5192 37.7972 11.4086 36.9181L8.44067 34.1941Z" fill="white"/>
<path d="M1.65381 26.5669C1.7365 29.2482 1.65381 29.9616 3.01247 32.182L4.45254 33.5233C3.6231 30.5908 3.33559 29.2482 1.65381 26.5669Z" fill="white"/>
<path d="M1.23535 32.1821C2.5075 34.7378 2.38919 35.0304 5.22863 36.5841L8.5235 37.2521C7.36966 36.4986 5.47034 35.4926 4.89914 35.1159C4.28215 34.7378 0.98855 32.1821 1.23535 32.1821Z" fill="white"/>
<path d="M5.31128 30.1663C5.43849 33.8535 5.39397 33.8108 7.86449 36.7873C7.20678 34.3611 6.42314 32.4333 5.31128 30.1663Z" fill="white"/>
<path d="M15.1934 43.9159L16.5113 44.0001C17.5825 42.1137 19.1052 41.2333 21.0821 40.2701L21.8225 39.8506C18.7757 39.8506 16.3879 41.8185 15.1934 43.9159Z" fill="white"/>
<path d="M35.3277 41.3173C34.0555 41.4015 32.6562 41.6954 31.2568 41.4015C29.8574 41.1503 28.6629 40.3528 27.2635 39.7261L22.7334 39.0542C24.1328 39.809 25.3693 39.976 26.8106 40.982C30.9222 43.7487 33.146 42.8684 35.3277 41.3173Z" fill="white"/>
<path d="M39.7751 37.1277C37.7155 38.0909 36.11 38.8457 33.8049 38.9286C32.0748 39.0128 30.4693 38.8457 28.0408 39.5151C30.0991 39.7261 33.0225 40.4369 34.9994 40.1857C36.0693 40.0187 37.0158 39.5578 37.8809 39.1383L39.7751 37.1277Z" fill="white"/>
<path d="M34.5872 34.1941C34.0516 35.1573 33.6394 36.3316 33.0224 37.1279C31.7872 38.7618 30.0571 39.0997 28.2417 39.5994C29.3536 38.7203 30.4654 37.7972 31.5773 36.9181L34.5872 34.1941Z" fill="white"/>
<path d="M41.345 26.5669C41.2623 29.2482 41.345 29.9616 40.027 32.182L38.5857 33.5233C39.363 30.5908 39.6518 29.2482 41.345 26.5669Z" fill="white"/>
<path d="M41.7915 32.1821C40.5193 34.7378 40.5982 35.0304 37.7994 36.5841L34.4639 37.2534C35.6571 36.4999 37.5107 35.4939 38.1289 35.1172C38.7039 34.7378 41.9988 32.1821 41.7915 32.1821Z" fill="white"/>
<path d="M37.6748 30.1663C37.5476 33.8535 37.5921 33.8108 35.1216 36.7873C35.8225 34.3611 36.6049 32.4333 37.6748 30.1663Z" fill="white"/>
<path d="M27.794 43.9159L26.4748 44.0001C25.4049 42.1137 23.8822 41.2333 21.9459 40.2701L21.1636 39.8506C24.2104 39.8506 26.5995 41.8185 27.794 43.9159Z" fill="white"/>
<path d="M39.2408 17.7683V17.3903C39.2804 17.5636 39.3652 17.7228 39.4863 17.8512C39.7158 18.0109 39.9658 18.1377 40.2293 18.2279L40.1873 18.3121C39.8896 18.2466 39.6088 18.1182 39.3629 17.9353C39.3222 17.8939 39.2815 17.8059 39.2357 17.7683H39.2408ZM39.2408 16.3843C39.2815 16.2173 39.4049 16.0917 39.569 15.9234C39.7892 15.749 40.0413 15.6209 40.3107 15.5466C40.6323 15.4597 40.9665 15.4312 41.2979 15.4625C41.5393 15.468 41.7717 15.5571 41.9568 15.7149C42.1271 15.8756 42.2548 16.0773 42.3283 16.3014C42.3758 16.5522 42.3618 16.811 42.2876 17.0549C42.1383 17.3264 41.926 17.5567 41.6693 17.7256V17.8097L42.8219 17.3903L42.7799 17.3061C42.709 17.3169 42.6366 17.3022 42.5751 17.2647C42.5331 17.2232 42.4924 17.2232 42.4924 17.1352V16.9669C42.5541 16.7197 42.5541 16.4606 42.4924 16.2134C42.3652 15.8781 42.2456 15.5855 41.9988 15.3757C41.7636 15.1584 41.4818 15.0001 41.1757 14.9135C40.8329 14.8657 40.4844 14.8802 40.1466 14.9562C39.7871 15.0638 39.4702 15.284 39.2408 15.5855V16.3804V16.3843ZM39.2408 13.7871V13.0323L39.9812 12.0678L39.2408 12.1105V11.9008L40.7674 11.7713L40.8081 11.814L39.2446 13.7833L39.2408 13.7871ZM43.1921 21.5812L42.369 21.7106V21.6213C42.4714 21.594 42.5689 21.5503 42.6578 21.4918C42.7557 21.4386 42.8292 21.3484 42.8626 21.2407C42.8998 21.1332 42.9141 21.0189 42.9046 20.9053L42.8626 20.403L40.1911 20.6114C40.0473 20.6298 39.9078 20.6736 39.7789 20.7409C39.722 20.843 39.6934 20.9589 39.6962 21.0762V21.2057H39.6148L39.4876 19.6961L39.5703 19.6547L39.6123 19.7841C39.6123 19.9524 39.653 20.078 39.7764 20.1195C39.8171 20.1609 39.9405 20.1609 40.1478 20.1195L42.8194 19.9097L42.7774 19.4488C42.7746 19.3323 42.7468 19.2179 42.696 19.1135C42.6792 19.0649 42.652 19.0208 42.6164 18.9843C42.5807 18.9477 42.5375 18.9198 42.4899 18.9025C42.3744 18.846 42.2477 18.8177 42.1197 18.8196V18.7354L42.9427 18.6927L43.1921 21.5812ZM39.2408 11.9008V12.1105L38.4571 12.1947L39.0334 13.2835L39.2408 13.0323V13.7871L38.7866 14.3309C38.6742 14.4739 38.5774 14.6288 38.4979 14.7931C38.4854 14.9244 38.5144 15.0564 38.5805 15.1699L38.4533 15.2113L37.8363 13.9542L37.9178 13.9127C37.9597 14.0422 38.045 14.1212 38.0844 14.1212C38.1658 14.1639 38.2116 14.1639 38.2472 14.1212C38.3551 14.0524 38.4525 13.9678 38.536 13.87L38.8642 13.4104L38.2472 12.1947L37.6302 12.2361C37.5324 12.258 37.4359 12.2861 37.3415 12.3203V12.0264H37.6302L39.237 11.8969L39.2408 11.9008ZM39.2408 15.5893V16.3843C39.1988 16.427 39.1988 16.5138 39.1568 16.5526C39.1101 16.7897 39.1246 17.035 39.1988 17.2647C39.1954 17.2881 39.1974 17.312 39.2047 17.3345C39.212 17.357 39.2243 17.3774 39.2408 17.3941V17.7722C39.083 17.5922 38.9696 17.3765 38.91 17.143C38.8265 16.8902 38.8053 16.6205 38.8484 16.3575C38.8914 16.0944 38.9973 15.8462 39.1568 15.6347C39.1988 15.6347 39.1988 15.5932 39.2408 15.5932V15.5893ZM37.3453 10.0986V9.80597L37.4725 9.93544C37.5539 10.1025 37.718 10.1452 37.9241 10.1866C38.0228 10.1888 38.1208 10.1706 38.2124 10.1332C38.304 10.0958 38.3873 10.04 38.4571 9.9691C38.5737 9.88826 38.6605 9.77031 38.7039 9.63378C38.7747 9.50696 38.8037 9.3604 38.7866 9.2156C38.7573 9.09271 38.7013 8.9781 38.6225 8.88027L38.3757 8.6291L37.3453 9.46677V8.80388L37.7575 8.46856C37.9216 8.33909 38.0462 8.21739 38.0462 8.13324C38.0328 8.02476 37.9886 7.92262 37.919 7.83934L37.8376 7.75648L37.919 7.67233L38.7459 8.67442C38.9142 8.86903 39.0404 9.09754 39.1161 9.34506C39.1929 9.53064 39.2072 9.73684 39.1568 9.93156C39.1093 10.1235 39.0091 10.2977 38.868 10.4339C38.7654 10.5182 38.6468 10.5803 38.5197 10.6164C38.3927 10.6524 38.2597 10.6617 38.1289 10.6436C37.8492 10.5789 37.6009 10.4157 37.428 10.1827C37.3873 10.1413 37.3873 10.0986 37.3453 10.0986ZM37.3453 6.91364V6.78417L37.4725 6.86703L37.4305 6.95118L37.3453 6.91364ZM37.3453 6.78417V6.86703C37.2181 6.78417 37.0985 6.73756 37.0158 6.78417C36.9344 6.78417 36.8517 6.86703 36.727 7.03534L36.3581 7.49625V6.66247V6.4113L36.727 6.24428L37.3453 6.78935V6.78417ZM37.3453 8.79482V9.46547L37.2181 9.54833C37.26 9.63249 37.3008 9.71664 37.3453 9.80079V10.0986C37.3046 10.0571 37.3046 10.0157 37.2639 9.93156C37.2232 9.8474 37.1367 9.76325 37.0985 9.68039L36.3581 10.3083V9.63766L37.3453 8.80388V8.79482ZM37.3453 12.0212V12.3151C37.2639 12.3565 37.2639 12.3992 37.2181 12.4445C37.2302 12.5659 37.2741 12.6817 37.3453 12.7799L37.2639 12.8213L36.727 11.8594L36.8097 11.8179C36.8924 11.9008 36.9751 11.9849 37.0158 11.9849C37.1217 12.0217 37.2338 12.0358 37.3453 12.0264V12.0212ZM36.3581 6.4113V6.66247L33.4321 8.08663L33.3482 8.0439L34.2209 4.81883L32.6943 6.66247C32.5671 6.83078 32.4882 6.95636 32.4882 7.04052C32.4882 7.12467 32.5709 7.20753 32.6536 7.33312L32.7808 7.37584L32.6981 7.4587L32.1625 6.99909V6.78935H32.2452C32.3526 6.71985 32.4495 6.6348 32.5327 6.53688L34.0148 4.73597C34.0838 4.64683 34.1396 4.5478 34.1802 4.44208C34.2209 4.35792 34.1802 4.31261 34.1802 4.23234C34.1006 4.1563 34.029 4.07214 33.9664 3.98117L34.0072 3.93844L34.7908 4.56766L33.9664 7.54545L36.3555 6.41389L36.3581 6.4113ZM36.3581 6.70519L34.8315 8.5074C34.7043 8.67442 34.6254 8.75857 34.544 8.75857C34.4874 8.77157 34.4287 8.77071 34.3725 8.75608C34.3163 8.74145 34.2644 8.71346 34.2209 8.67442L34.1395 8.59026L34.0975 8.63299L35.2093 9.63766L35.292 9.55351L35.2093 9.47065C35.1576 9.44261 35.1148 9.40025 35.0858 9.34847C35.0567 9.29669 35.0427 9.23761 35.0452 9.17805C35.0751 9.0459 35.1471 8.92753 35.25 8.84143L36.3632 7.50143V6.70519H36.3581ZM36.3581 9.63766V10.3083H36.3161C36.1507 10.4766 36.0286 10.5595 36.0286 10.6436C36.0347 10.754 36.0799 10.8585 36.1558 10.9375L36.2398 11.067L36.1558 11.1084L35.2093 9.93544L35.292 9.85129L35.3747 9.98076C35.4021 10.0336 35.4436 10.0775 35.4945 10.1073C35.5454 10.1371 35.6036 10.1516 35.6622 10.1491C35.7449 10.1491 35.8276 10.0649 35.993 9.93933L36.3632 9.64543L36.3581 9.63766ZM32.16 5.11273C32.2244 5.02047 32.2798 4.92204 32.3254 4.81883C32.4463 4.61248 32.5204 4.38128 32.5424 4.14209C32.5644 3.90289 32.5337 3.66171 32.4526 3.4361C32.409 3.2059 32.3102 2.99021 32.1651 2.80818L32.16 5.11273ZM32.16 2.80818V5.11273C32.0881 5.21881 32.0053 5.31689 31.9132 5.40533V4.27247C32.0773 3.85429 32.1193 3.51896 32.0404 3.22507C32.0359 3.10238 31.9911 2.98477 31.9132 2.89104V2.59844C32.0054 2.65532 32.0886 2.72603 32.16 2.80818ZM32.16 6.78935V6.99909L31.9132 6.78935V6.65988C31.9434 6.69688 31.9806 6.72738 32.0225 6.74961C32.0645 6.77184 32.1103 6.78535 32.1574 6.78935H32.16ZM31.9132 2.59844V2.89233C31.8148 2.73891 31.6708 2.62144 31.5023 2.55701C31.3982 2.49335 31.282 2.45292 31.1613 2.43842C31.0407 2.42391 30.9184 2.43565 30.8026 2.47286V2.22169C31.0869 2.19119 31.3735 2.24945 31.6244 2.3887C31.7275 2.44827 31.8243 2.51856 31.9132 2.59844ZM31.9132 4.27377V5.40533C31.7155 5.57964 31.4923 5.7216 31.2517 5.8261C31.1045 5.87038 30.9531 5.89859 30.8001 5.91025V5.61507C30.823 5.61862 30.8464 5.61673 30.8684 5.60954C30.8905 5.60236 30.9107 5.59007 30.9273 5.57364C31.2161 5.44417 31.5048 5.11273 31.7516 4.61039C31.8219 4.50676 31.8772 4.3934 31.9157 4.27377H31.9132ZM31.9132 6.66247V6.79194L31.7491 6.66247L31.8305 6.57961L31.9132 6.66247ZM30.8026 2.22169V2.47286C30.7606 2.47286 30.7186 2.51429 30.6754 2.51429C30.2751 2.7422 29.9571 3.0948 29.7683 3.52026C29.5203 4.0226 29.4389 4.48351 29.5203 4.90299C29.5392 5.04456 29.5961 5.17808 29.6848 5.28886C29.7734 5.39964 29.8904 5.4834 30.0228 5.53091C30.2696 5.69922 30.5176 5.69922 30.8064 5.61507V5.90896C30.5094 5.9182 30.2141 5.86074 29.9414 5.74065C29.5285 5.52138 29.2175 5.14488 29.0763 4.69325C28.9484 4.20064 29.007 3.67711 29.2404 3.22636C29.3578 2.99429 29.5206 2.78912 29.7188 2.62347C29.917 2.45781 30.1465 2.33518 30.393 2.26312C30.5277 2.22669 30.6673 2.21269 30.8064 2.22169H30.8026ZM18.16 2.6826V2.47286L18.7375 2.3887L18.1574 1.42416V0.545064L19.684 2.93376C19.764 3.09503 19.8762 3.23747 20.0135 3.35195C20.1271 3.41331 20.2594 3.42857 20.3837 3.39467V3.52414L19.0263 3.77531L18.9843 3.64584C19.0896 3.62764 19.1888 3.58315 19.2731 3.51638C19.289 3.49929 19.3009 3.47878 19.308 3.45637C19.315 3.43395 19.317 3.41021 19.3138 3.38691C19.279 3.25268 19.2231 3.12503 19.1484 3.00886L18.8609 2.54924L18.16 2.67871V2.6826ZM23.5145 2.63987L23.5959 2.6826L23.2664 3.64584L20.5491 3.56169V3.47753H20.7132C20.7682 3.483 20.8236 3.47396 20.8742 3.45129C20.9248 3.42861 20.9688 3.39306 21.002 3.34807C21.0618 3.21735 21.0902 3.07399 21.0846 2.92988L21.1177 0.629219C21.1239 0.48464 21.0956 0.340686 21.035 0.20974C21.0022 0.164656 20.9585 0.129018 20.9081 0.106321C20.8577 0.0836247 20.8024 0.0746477 20.7475 0.0802707H20.6203V0L22.1838 0.04143V0.129469C22.0589 0.117552 21.9329 0.131649 21.8136 0.170899C21.7519 0.203939 21.6963 0.247762 21.6495 0.300368C21.6073 0.435332 21.593 0.577703 21.6075 0.718552L21.5757 2.97778C21.5757 3.10725 21.5757 3.22895 21.6164 3.27168C21.6164 3.31311 21.6584 3.31311 21.6991 3.35454C21.835 3.38091 21.9729 3.39521 22.1113 3.39726H22.3581C22.5512 3.41171 22.7453 3.39732 22.9343 3.35454C23.046 3.30961 23.1451 3.23761 23.2231 3.1448C23.3513 2.99858 23.4495 2.8278 23.5119 2.64246L23.5145 2.63987ZM28.8664 1.08624L28.6234 2.30455L28.5407 2.26312C28.5592 1.94963 28.4721 1.63911 28.2939 1.38273C28.1667 1.17299 27.9644 1.0474 27.6757 0.963249C27.4579 0.921833 27.2345 0.921833 27.0167 0.963249C26.7794 1.05021 26.5754 1.2116 26.434 1.42416C26.2699 1.6339 26.1465 1.96922 26.0219 2.34727C25.9482 2.62012 25.9347 2.90617 25.9824 3.18493C25.9864 3.30389 26.0139 3.42081 26.0633 3.5287C26.1127 3.63658 26.183 3.73323 26.2699 3.81286C26.4211 4.01452 26.6423 4.14976 26.8882 4.19091C27.0858 4.26431 27.2999 4.27868 27.5052 4.23234C27.7666 4.1235 28.0139 3.98263 28.2418 3.81286L28.2837 3.85558C28.0849 4.11408 27.8133 4.30469 27.5052 4.40194C27.2584 4.4848 26.9696 4.44337 26.6401 4.35922C26.1046 4.22975 25.6936 3.89831 25.5283 3.39597C25.3778 3.00919 25.3489 2.58444 25.4456 2.18026C25.5728 1.84493 25.6936 1.50961 25.9404 1.25844C26.1599 1.04214 26.4281 0.883881 26.7215 0.797528C27.0254 0.671803 27.3655 0.671803 27.6693 0.797528C27.9355 0.844689 28.1803 0.97607 28.369 1.17299C28.411 1.21442 28.4517 1.25714 28.4962 1.25714H28.6234C28.7061 1.21442 28.7506 1.12767 28.7875 1.09013L28.8664 1.08624ZM18.1574 0.545064V1.42416L17.9106 1.0474L17.5404 2.60103L18.1574 2.47156V2.6813L17.4997 2.81077L17.3725 3.39726C17.3424 3.50634 17.3283 3.61932 17.3305 3.73259C17.3305 3.77402 17.3725 3.81545 17.4577 3.86206C17.4984 3.90349 17.6218 3.90349 17.7872 3.86206V3.99153L16.7173 4.143L16.6766 4.06014C16.8407 4.01742 16.9234 3.97599 16.9641 3.89183C17.0512 3.71926 17.1215 3.53844 17.174 3.35195L17.8699 0.258938L17.9513 0.216213L18.1574 0.551538V0.545064ZM13.9937 5.19688V4.143L14.2481 4.81883C14.4448 4.80059 14.6384 4.75709 14.8244 4.68936C15.0724 4.60452 15.2884 4.44348 15.4426 4.22845C15.5241 4.01871 15.5699 3.80897 15.4834 3.64196C15.4399 3.50543 15.3531 3.38748 15.2366 3.30664C15.1779 3.24638 15.1069 3.20005 15.0286 3.17096C14.9503 3.14187 14.8667 3.13072 14.7837 3.13833C14.5726 3.14838 14.3644 3.19207 14.1667 3.26779C14.1247 3.30922 14.0395 3.30922 14 3.35065V3.14221C14.0169 3.12618 14.0371 3.11415 14.0591 3.10699C14.0811 3.09982 14.1043 3.0977 14.1272 3.10078C14.3038 3.02589 14.4697 2.9275 14.6208 2.80818C14.7267 2.72504 14.7998 2.60609 14.8269 2.47286C14.8336 2.33176 14.8199 2.19042 14.7862 2.05338C14.7503 1.96368 14.6945 1.88362 14.6233 1.8194C14.552 1.75519 14.4672 1.70854 14.3753 1.6831C14.2595 1.62762 14.1289 1.6126 14.0038 1.64037V1.38273C14.0878 1.38273 14.1705 1.3413 14.2519 1.3413C14.4793 1.2976 14.7146 1.34391 14.9096 1.47077C14.9994 1.5064 15.0797 1.56288 15.1442 1.63571C15.2087 1.70854 15.2556 1.79571 15.2811 1.89025C15.3559 2.04658 15.3708 2.22564 15.3231 2.39259C15.2663 2.57938 15.1499 2.74157 14.9923 2.85349C15.1858 2.84118 15.3801 2.85555 15.5699 2.89622C15.7562 2.97647 15.9083 3.12174 15.9987 3.30591C16.0892 3.49007 16.1122 3.70105 16.0635 3.9009C16.0166 4.10424 15.8974 4.28272 15.7289 4.40194C15.6017 4.56896 15.318 4.69454 14.9465 4.82013L13.9937 5.19688ZM13.9937 1.38273V1.6339C13.8544 1.64585 13.717 1.67409 13.584 1.71805C13.4426 1.77932 13.3049 1.84937 13.1719 1.92779L13.6655 3.22248C13.7333 3.20453 13.8021 3.1907 13.8715 3.18105C13.9123 3.18105 13.953 3.13833 13.9988 3.13833V3.34807C13.958 3.34807 13.9173 3.34807 13.9173 3.39079C13.8855 3.39144 13.8542 3.39919 13.8256 3.41351C13.797 3.42783 13.7719 3.44836 13.752 3.47365L13.9937 4.143V5.1917L13.4187 5.44158L13.3767 5.35872L13.5039 5.31599C13.606 5.25584 13.6911 5.16974 13.7507 5.06612C13.753 4.922 13.7253 4.77902 13.6693 4.64664L12.8487 2.51429C12.8016 2.37795 12.7324 2.2506 12.6439 2.13753C12.5985 2.11685 12.5493 2.10617 12.4995 2.10617C12.4498 2.10617 12.4006 2.11685 12.3551 2.13753V2.00806L13.5891 1.55363C13.7178 1.47938 13.8555 1.42279 13.9988 1.38532L13.9937 1.38273ZM12.3526 6.07597C12.4384 5.91636 12.5075 5.74799 12.5587 5.57364C12.6325 5.14293 12.5598 4.69947 12.3526 4.31649V6.07597ZM12.3526 2.01195V2.14142H12.3119L12.1847 2.18285L12.144 2.14142V2.09999L12.35 2.01583L12.3526 2.01195ZM12.3526 4.31649V6.07597C12.2982 6.18355 12.2288 6.28254 12.1465 6.36987V5.78337C12.1872 5.78337 12.1872 5.78338 12.1872 5.74065C12.1915 5.62737 12.1777 5.51414 12.1465 5.40533V3.98117C12.1872 4.0226 12.2292 4.11064 12.2737 4.14818C12.3161 4.19489 12.3436 4.25357 12.3526 4.31649ZM12.1465 3.98117V5.40533C12.0778 5.09964 11.9669 4.8054 11.817 4.53141C11.4888 3.98635 11.1593 3.69245 10.7878 3.56687C10.6459 3.50565 10.49 3.48534 10.3375 3.50818C10.1849 3.53101 10.0414 3.5961 9.92278 3.69634C9.81676 3.73077 9.72819 3.80605 9.67599 3.90608V3.64584C9.72495 3.5685 9.79728 3.50943 9.88207 3.47753C10.2535 3.22636 10.6644 3.18493 11.1542 3.26909C11.5505 3.39118 11.897 3.6411 12.1414 3.98117H12.1465ZM12.1465 5.78337C12.1309 5.93536 12.0821 6.08187 12.0038 6.21223C11.9254 6.34259 11.8194 6.4535 11.6936 6.53688C11.571 6.61184 11.4336 6.65825 11.2913 6.6728C11.149 6.68735 11.0053 6.66967 10.8705 6.62104C10.5003 6.49157 10.1289 6.16013 9.84136 5.6565C9.76222 5.55876 9.7057 5.44416 9.67599 5.32117V6.4113C9.8821 6.65395 10.1544 6.8288 10.4584 6.91364C10.952 6.99909 11.3641 6.95636 11.7763 6.66247C11.9232 6.60033 12.051 6.4993 12.1465 6.36987V5.78337ZM9.67599 8.17208V7.58429L9.84136 8.00377L9.67599 8.17208ZM9.67599 3.64067V3.89701C9.56576 4.04448 9.49478 4.2184 9.4699 4.40194C9.42919 4.65311 9.5106 4.98844 9.67599 5.32247V6.41259L9.42919 6.16142V3.85558C9.50062 3.77343 9.58382 3.70272 9.67599 3.64584V3.64067ZM9.67599 7.57911V8.1669L9.42919 8.37534V7.91961C9.46238 7.84043 9.47634 7.75428 9.4699 7.66844C9.47262 7.59625 9.45868 7.52442 9.42919 7.4587V7.12079L9.67599 7.57911ZM9.42919 3.8504V6.15495C9.42919 6.11223 9.38848 6.0708 9.34777 5.98794C9.20693 5.77513 9.11151 5.53463 9.06769 5.28196C9.02386 5.02929 9.0326 4.77007 9.09334 4.52105C9.16936 4.2819 9.28045 4.0558 9.42283 3.8504H9.42919ZM9.42919 7.11949V7.45352C9.41666 7.33943 9.38929 7.22754 9.34777 7.12079L9.42919 7.07806V7.12079V7.11949ZM9.42919 7.91443C9.43258 7.93775 9.43068 7.96154 9.42362 7.98398C9.41656 8.00643 9.40454 8.02693 9.38848 8.0439C9.29246 8.20645 9.16681 8.34883 9.01828 8.46338L8.8529 8.63169C8.6888 8.80388 8.56413 8.88416 8.52342 8.92559H8.3962C8.3101 8.86048 8.2277 8.79045 8.1494 8.71585L6.66989 7.08195C6.50578 6.91364 6.42309 6.83078 6.42309 6.74662V7.58429L7.82246 9.0926C7.91321 9.17243 7.98387 9.2732 8.02855 9.38649C8.03052 9.51084 7.9849 9.63109 7.90133 9.72182L7.77412 9.80597L7.85554 9.89013L9.42028 8.38052V7.91961L9.42919 7.91443ZM6.42309 11.9849V11.6522C6.55131 11.5779 6.6634 11.4779 6.75258 11.3583C6.8269 11.2507 6.89569 11.1392 6.95867 11.0243C7.00593 10.9036 7.03384 10.7759 7.04136 10.6462L6.42309 10.1853V9.51337C6.4638 9.55351 6.4638 9.59623 6.50578 9.59623L7.36957 10.228C7.3552 10.4427 7.31241 10.6543 7.24236 10.8573C7.15736 11.0662 7.04665 11.2632 6.91287 11.4438C6.75853 11.6351 6.59329 11.8171 6.418 11.9888L6.42309 11.9849ZM6.42309 6.57961V6.36987L6.62918 6.16013L6.66989 6.24428C6.57429 6.3293 6.49118 6.42784 6.42309 6.53688V6.57961ZM2.09778 18.606L2.34458 18.6474C2.61196 18.665 2.87546 18.7216 3.12695 18.8157C3.33695 18.9097 3.5105 19.0718 3.62054 19.2766C3.74776 19.4851 3.78592 19.779 3.74776 20.1557C3.70959 20.5325 3.62054 20.8264 3.46025 21.0361C3.30979 21.2178 3.10894 21.3492 2.88397 21.4129C2.62496 21.4567 2.3606 21.4567 2.10159 21.4129V20.9105H2.71859C2.85971 20.9068 2.99915 20.8783 3.13077 20.8264C3.21345 20.7422 3.33685 20.6593 3.37756 20.5325C3.46412 20.4082 3.52077 20.2649 3.54294 20.1143C3.54466 19.8844 3.50141 19.6564 3.41573 19.4436C3.34067 19.2792 3.22815 19.1354 3.08751 19.0242C2.83163 18.9469 2.56997 18.891 2.30514 18.8571H2.10032V18.606H2.09778ZM6.42309 6.36987V6.74662V7.58429L6.25899 7.37973C6.09488 7.20753 6.01219 7.12079 5.9295 7.12079C5.8752 7.11975 5.82134 7.1308 5.77168 7.15316C5.72201 7.17553 5.67775 7.20867 5.64199 7.25026L5.51478 7.33441L5.47661 7.25026L6.42309 6.37116V6.36987ZM6.42309 9.51337V10.1827L6.217 10.0157C6.12426 9.9543 6.02829 9.89812 5.9295 9.8474C5.85818 9.84084 5.78653 9.85569 5.72341 9.89013C5.6827 9.89013 5.59619 9.97299 5.51732 10.0986L5.43463 10.0157L6.25899 8.92559L6.3404 8.96831L6.30097 9.00974C6.217 9.13921 6.17375 9.21948 6.217 9.34506C6.27763 9.4107 6.347 9.46735 6.42309 9.51337ZM6.42309 11.6496C6.36075 11.7025 6.29137 11.746 6.217 11.7791C5.96359 11.8583 5.69492 11.873 5.43463 11.8218C5.14713 11.7791 4.85962 11.6108 4.57084 11.4438C4.27084 11.2125 4.03069 10.9103 3.87116 10.5634C3.801 10.3665 3.78252 10.1543 3.81754 9.94795C3.85257 9.74156 3.93989 9.54804 4.07089 9.38649C4.14726 9.258 4.24898 9.14701 4.36963 9.06055C4.49028 8.97409 4.62723 8.91403 4.77184 8.88416C5.00803 8.87288 5.24443 8.90131 5.47152 8.96831L5.55294 8.92559L4.60646 8.29637L4.52377 8.38052C4.60646 8.46468 4.65099 8.50999 4.65099 8.54883V8.63299C4.60365 8.68557 4.54769 8.72938 4.48561 8.76245C4.35681 8.8527 4.2332 8.95039 4.11541 9.05505L3.86861 9.31399C3.67118 9.56476 3.55595 9.8722 3.53913 10.1931C3.48257 10.5696 3.55488 10.9545 3.74394 11.2832C3.86847 11.5685 4.0701 11.8118 4.32532 11.9849C4.65551 12.239 5.06694 12.3586 5.47916 12.3203C5.82124 12.3114 6.1521 12.1942 6.42564 11.9849V11.6522L6.42309 11.6496ZM2.09778 16.8879V16.6355L3.53913 17.0977C3.74394 17.1805 3.86861 17.2271 3.90932 17.1805C4.03654 17.1391 4.07343 17.0511 4.11541 16.9294L4.15739 16.7999L4.28461 16.8413L3.8737 18.0143L3.79101 17.9729L3.83299 17.8434C3.85777 17.7892 3.86698 17.7289 3.85955 17.6696C3.85212 17.6102 3.82836 17.5543 3.79101 17.5081C3.69395 17.4295 3.58029 17.375 3.45898 17.3488L2.10032 16.8879H2.09778ZM2.09778 16.1745V15.6308L3.99201 14.9174L2.09778 14.2481V14.0383H2.13849L4.93722 15.0016L4.89524 15.0857L2.09778 16.1745ZM0.288778 19.2339L0.206089 19.1925L0.333304 17.9353H0.415994V18.1036C0.405048 18.1658 0.411127 18.2299 0.433565 18.2888C0.456003 18.3477 0.493935 18.3992 0.543209 18.4377C0.662929 18.4804 0.787185 18.5087 0.913405 18.5218L2.10796 18.606V18.8571L0.872696 18.7277C0.733964 18.7134 0.59383 18.7275 0.460519 18.7691C0.419552 18.8057 0.38694 18.851 0.364965 18.9017C0.34299 18.9525 0.332184 19.0075 0.333304 19.063L0.292595 19.23L0.288778 19.2339ZM2.10032 21.4129H2.01763L0.658975 21.2834C0.507405 21.248 0.348687 21.263 0.206089 21.3261C0.15604 21.42 0.113498 21.5179 0.0788734 21.6187V21.7482H0L0.127215 20.1946H0.209905V20.3616C0.204778 20.4175 0.213771 20.4739 0.236033 20.5253C0.258295 20.5768 0.29309 20.6215 0.33712 20.6555C0.377829 20.7383 0.5025 20.7383 0.707316 20.7849L2.10668 20.9144V21.4167L2.10032 21.4129ZM2.10032 14.0331V14.2429H2.05961C1.85352 14.1587 1.73013 14.1587 1.64744 14.2001C1.56475 14.2001 1.48206 14.2843 1.44135 14.4513L1.40064 14.5355H1.31795L1.73013 13.3625H1.81154L1.77084 13.492C1.74615 13.5532 1.73693 13.6198 1.74405 13.6856C1.75116 13.7514 1.77436 13.8144 1.81154 13.8687C1.90038 13.9371 1.99742 13.9936 2.10032 14.037V14.0331ZM2.10032 15.6256V16.1694L1.48206 16.3791L2.10032 16.6303V16.8827L1.15384 16.5047L0.823082 16.673L0.658975 16.84C0.607643 16.8976 0.578304 16.972 0.576285 17.0498H0.44907L0.778557 16.1279L2.10032 15.6256Z" fill="white"/>
<path d="M59.2504 35.1573V25.394H58.5087V33.8587L52.9507 25.394H52.251V35.1573H52.9507V26.6939L58.5087 35.1573H59.2504Z" fill="white"/>
<path d="M66.003 32.0151V31.6798C66.003 29.7106 65.0565 28.4949 63.4091 28.4949V29.1306C63.7654 29.1183 64.1171 29.2157 64.4182 29.4099C64.7194 29.6041 64.956 29.8862 65.0972 30.2194C65.2626 30.6389 65.3033 30.8059 65.3453 31.4351H63.4091V32.0216L66.003 32.0151ZM63.4091 35.2415H63.5732C64.6444 35.2415 65.2626 34.9062 65.9216 34.2368L65.4267 33.816C64.8492 34.3611 64.3976 34.6136 63.6152 34.6136H63.4091V35.2415ZM63.4091 28.4949C61.7617 28.4949 60.8152 29.752 60.8152 31.8468C60.8152 33.9843 61.721 35.1573 63.4091 35.2415V34.6136C62.1738 34.5294 61.5149 33.6076 61.5149 32.0151H63.4091V31.4286H61.5149C61.5149 30.7994 61.5556 30.6324 61.721 30.2129C61.8721 29.8878 62.1112 29.6134 62.4102 29.4217C62.7092 29.23 63.0557 29.129 63.4091 29.1306V28.4949Z" fill="white"/>
<path d="M69.7138 35.1572V34.5293H69.2559C68.5562 34.5293 68.2267 34.1513 68.2267 33.4405V29.0813H69.7138V28.5789H68.2267V26.4414H67.5677V28.5789H66.6606V29.0813H67.5677V33.4405C67.5677 34.4452 68.1033 35.1572 69.1325 35.1572H69.7138Z" fill="white"/>
<path d="M80.5385 28.5789H79.7549L78.1087 34.3609L76.2565 28.5789H75.5555L73.7032 34.3609L72.0558 28.5789H71.2734L73.3738 35.1572H74.0734L75.927 29.6677L77.7385 35.1572H78.4382L80.5385 28.5789Z" fill="white"/>
<path d="M85.9719 31.8492C85.9719 30.886 85.8447 29.9227 85.1488 29.2094C84.9094 28.9728 84.6256 28.7878 84.3143 28.6654C84.0031 28.5431 83.6708 28.4859 83.3373 28.4973V29.1304C83.5885 29.1214 83.8388 29.165 84.0727 29.2585C84.3067 29.3521 84.5192 29.4935 84.6972 29.6741C85.2315 30.2192 85.2735 31.0983 85.2735 31.8531C85.2735 32.6079 85.2315 33.5362 84.6972 34.0748C84.5193 34.2556 84.3068 34.3973 84.0728 34.491C83.8389 34.5848 83.5885 34.6286 83.3373 34.6199V35.2478C83.6708 35.2592 84.0031 35.202 84.3143 35.0797C84.6256 34.9573 84.9094 34.7723 85.1488 34.5357C85.8498 33.8159 85.9719 32.8112 85.9719 31.8492ZM83.3373 28.4973C82.6649 28.4827 82.0139 28.7385 81.5257 29.2094C80.826 29.9227 80.7026 30.886 80.7026 31.8492C80.7026 32.8125 80.8298 33.8184 81.5257 34.5318C82.0139 35.0026 82.6649 35.2585 83.3373 35.2439V34.616C83.0864 34.6249 82.8363 34.581 82.6028 34.4873C82.3693 34.3935 82.1572 34.2518 81.9799 34.0709C81.443 33.5258 81.4023 32.604 81.4023 31.8492C81.4023 31.0944 81.443 30.2153 81.9799 29.6703C82.1573 29.4896 82.3694 29.3481 82.6029 29.2545C82.8365 29.1609 83.0864 29.1174 83.3373 29.1265V28.4973Z" fill="white"/>
<path d="M90.9958 29.6263L91.5314 29.1304C91.3214 28.9179 91.0702 28.7522 90.7938 28.6438C90.5174 28.5355 90.2218 28.4869 89.926 28.5012C89.1843 28.5012 88.3994 28.8365 88.0317 29.4658V28.5854H87.332V35.1637H88.033V31.0932C88.033 30.0458 88.6513 29.124 89.7631 29.124C90.3369 29.1304 90.6256 29.2483 90.9958 29.6263Z" fill="white"/>
<path d="M97.2954 35.1573L94.6607 31.0091L96.8018 28.579H95.9367L92.6851 32.2663V25.394H92.0261V35.1573H92.6851V33.2722L94.2079 31.5114L96.4316 35.1573H97.2954Z" fill="white"/>
<path d="M107.751 31.9788V25.394H107.013V31.8895C107.013 33.5234 105.984 34.5721 104.419 34.5721C102.893 34.5721 101.866 33.5234 101.866 31.8895V25.394H101.125V31.9788C101.125 33.9066 102.483 35.2479 104.419 35.2479C106.356 35.2479 107.751 33.9001 107.751 31.9788Z" fill="white"/>
<path d="M114.795 35.1573L112.201 31.0091L114.342 28.579H113.436L110.226 32.2663V25.394H109.526V35.1573H110.226V33.2722L111.708 31.5114L113.972 35.1573H114.795Z" fill="white"/>
<path d="M119.447 29.6264L119.942 29.1241C119.489 28.6619 119.035 28.4949 118.378 28.4949C117.636 28.4949 116.851 28.8302 116.483 29.4594V28.579H115.784V35.1573H116.483V31.0933C116.483 30.0459 117.102 29.1241 118.214 29.1241C118.789 29.1306 119.073 29.2484 119.447 29.6264Z" fill="white"/>
<path d="M124.841 35.1572V30.6258C124.841 29.2845 124.06 28.4883 122.33 28.4883H122.289V29.1304H122.33C123.647 29.1304 124.142 29.6742 124.142 30.6841V31.4389H122.289V32.0254H124.142V32.863C124.142 33.4508 124.014 33.9104 123.771 34.1202C123.359 34.5397 122.866 34.6238 122.289 34.6238V35.2517C123.154 35.2517 123.606 35.042 124.142 34.4969V35.1676L124.841 35.1572ZM122.289 28.4948C121.26 28.4948 120.559 28.7459 120.025 29.5007L120.518 29.9616C120.931 29.3324 121.384 29.124 122.289 29.124V28.4948ZM122.289 31.4285H122.043C120.643 31.4285 119.777 32.1406 119.777 33.355C119.77 33.8282 119.931 34.2879 120.231 34.6497C120.683 35.0679 121.177 35.2362 122.165 35.2362H122.292V34.6083H122.165C120.971 34.6083 120.478 34.2315 120.478 33.3498C120.478 32.428 121.012 32.0098 122.124 32.0098H122.289V31.4285Z" fill="white"/>
<path d="M127.229 35.1573V28.579H126.53V35.1573H127.229ZM127.312 26.2744V25.394H126.452V26.2744H127.312Z" fill="white"/>
<path d="M134.024 35.1572V30.9249C134.034 30.5928 133.976 30.2621 133.856 29.9535C133.735 29.6448 133.553 29.3647 133.321 29.1304C132.909 28.711 132.333 28.5012 131.593 28.5012C130.81 28.5012 130.151 28.7938 129.697 29.3816V28.5854H128.996V35.1637H129.696V31.0505C129.696 29.836 130.356 29.124 131.509 29.124C132.702 29.124 133.32 29.7933 133.32 31.0505V35.1572H134.024Z" fill="white"/>
<path d="M140.529 32.0151V31.6798C140.529 29.7106 139.541 28.4949 137.935 28.4949V29.1306C138.291 29.1242 138.64 29.224 138.94 29.4175C139.24 29.611 139.478 29.8898 139.624 30.2194C139.789 30.6389 139.789 30.8059 139.83 31.4351H137.935V32.0216L140.529 32.0151ZM137.935 35.2415H138.063C139.175 35.2415 139.793 34.9062 140.45 34.2368L139.915 33.816C139.379 34.3611 138.887 34.6136 138.103 34.6136H137.939L137.935 35.2415ZM137.935 28.4949C136.282 28.4949 135.3 29.752 135.3 31.8468C135.3 33.9843 136.207 35.1573 137.935 35.2415V34.6136C136.663 34.5294 135.999 33.6076 135.999 32.0151H137.935V31.4286H135.999C136.041 30.7994 136.041 30.6324 136.254 30.2129C136.396 29.8804 136.633 29.5989 136.934 29.4048C137.234 29.2107 137.586 29.1129 137.942 29.1241L137.935 28.4949Z" fill="white"/>
<path d="M55.8742 16.1332H57.9325V16.6355C57.9325 17.894 57.0267 18.7316 55.8742 18.7316C55.5833 18.7381 55.2947 18.6772 55.0303 18.5536C54.7658 18.4301 54.5324 18.247 54.3476 18.0183C53.9392 17.5159 53.812 17.2194 53.812 15.2114C53.812 13.158 53.9392 12.8654 54.3463 12.3631C54.5314 12.1347 54.7649 11.952 55.0293 11.8287C55.2937 11.7053 55.5821 11.6446 55.8729 11.651C56.3006 11.6555 56.7163 11.7949 57.0629 12.05C57.4094 12.305 57.6697 12.6632 57.8078 13.0751H59.3726C59.2279 12.2423 58.7959 11.4894 58.1544 10.9518C57.5128 10.4142 56.7038 10.1273 55.8729 10.1427C55.2415 10.1351 54.6194 10.2977 54.0697 10.614C53.5201 10.9303 53.0625 11.389 52.7434 11.9436C52.4152 12.5301 52.2905 12.824 52.2905 15.2127C52.2905 17.6014 52.4177 17.8953 52.7434 18.4818C53.0719 19.0246 53.5327 19.4718 54.081 19.78C54.6293 20.0883 55.2465 20.2472 55.8729 20.2412C57.8905 20.2412 59.4553 18.6876 59.4553 16.721V14.709H55.8742V16.1332Z" fill="white"/>
<path d="M61.104 18.4376C61.104 19.7323 61.8851 20.1557 62.9155 20.1557H63.5325V18.8157H63.0796C62.7095 18.8157 62.5441 18.6474 62.5441 18.3535V10.228H61.104V18.4376Z" fill="white"/>
<path d="M67.3208 20.2397C68.4327 20.2397 69.0904 19.7788 69.4619 19.3594C70.0382 18.7314 70.2442 18.1436 70.2442 16.6405C70.2442 15.0869 70.0382 14.5043 69.4619 13.9217C69.0904 13.5022 68.4327 12.9998 67.3208 12.9998V14.424C67.5401 14.4258 67.7563 14.4755 67.9551 14.5695C68.154 14.6635 68.3307 14.7997 68.4734 14.9691C68.7202 15.3458 68.8029 15.5983 68.8029 16.6444C68.8029 17.6504 68.7202 17.9391 68.4734 18.321C68.3281 18.4842 68.1499 18.6137 67.951 18.7006C67.7522 18.7875 67.5372 18.8298 67.3208 18.8246V20.2397ZM64.3555 16.6353C64.3555 18.1436 64.6035 18.7314 65.1391 19.3542C65.55 19.7737 66.209 20.2346 67.3208 20.2346V18.8104C66.8273 18.8104 66.3731 18.6007 66.1683 18.3068C65.8795 17.93 65.7968 17.6361 65.7968 16.6301C65.7968 15.584 65.8795 15.3355 66.1683 14.9548C66.3079 14.7818 66.484 14.643 66.6835 14.5486C66.8831 14.4543 67.1009 14.4068 67.3208 14.4098V12.9856C66.913 12.9764 66.5077 13.0541 66.1311 13.2138C65.7545 13.3734 65.4149 13.6115 65.134 13.9126C64.6035 14.5004 64.3555 15.0856 64.3555 16.6353Z" fill="white"/>
<path d="M74.6093 20.1971C74.7435 20.2336 74.8827 20.2476 75.0214 20.2386C75.8852 20.2386 76.548 19.8618 76.9157 19.3167C77.3266 18.8144 77.45 18.3522 77.45 16.6341C77.45 14.8747 77.3228 14.4138 76.9157 13.9153C76.6921 13.6224 76.4044 13.3865 76.0756 13.2265C75.7468 13.0665 75.3859 12.9867 75.0214 12.9935C74.8561 12.9935 74.7327 13.0349 74.6093 13.0349V14.4176C75.9272 14.4176 76.0086 15.5492 76.0086 16.638C76.0086 17.7269 75.9272 18.8183 74.6093 18.8183V20.1971ZM71.7266 20.1544H73.1679V19.4423C73.5553 19.8462 74.0611 20.1111 74.6093 20.1971V18.8157H74.5673C73.2493 18.8157 73.1679 17.6414 73.1679 16.6354C73.1679 15.5893 73.2493 14.4151 74.5673 14.4151H74.6093V13.0323C74.0737 13.1618 73.6208 13.4518 73.1679 13.8286V10.228H71.7266V20.1544Z" fill="white"/>
<path d="M82.7623 20.1558H84.2023V15.3369C84.2023 13.6189 83.0498 13.0324 81.3196 12.991V14.331C82.3488 14.331 82.7623 14.5899 82.7623 15.2541V16.0076H81.3196V17.1806H82.7623V17.6842C82.7623 18.7316 82.3908 18.8986 81.3196 18.8986V20.2399C82.0613 20.1985 82.4735 19.981 82.7623 19.5279V20.1558ZM81.3196 12.991H81.237C80.1671 12.991 79.3847 13.2836 78.8491 14.0384L79.961 14.876C80.2078 14.4993 80.5792 14.331 81.3196 14.331V12.991ZM81.3196 16.0076H80.7815C79.2549 16.0076 78.4751 16.9708 78.4751 18.1037C78.4751 19.3181 79.4216 20.2399 80.9876 20.2399H81.3158V18.9025H81.1886C80.2001 18.9025 79.8312 18.4843 79.8312 18.0221C79.8312 17.5198 80.2001 17.1845 81.0652 17.1845H81.312L81.3196 16.0076Z" fill="white"/>
<path d="M86.0559 18.4376C86.0559 19.7323 86.8383 20.1557 87.9081 20.1557H88.5251V18.8157H88.0328C87.7033 18.8157 87.4972 18.6474 87.4972 18.3535V10.228H86.0559V18.4376Z" fill="white"/>
<path d="M98.3258 17.3902C97.9136 18.2706 97.2547 18.7315 96.4316 18.7315C96.1359 18.7328 95.8433 18.6699 95.5735 18.5468C95.3036 18.4238 95.0627 18.2435 94.8668 18.0181C94.4967 17.5158 94.3733 17.2232 94.3733 15.2112C94.3733 13.1578 94.5005 12.8652 94.8668 12.3629C95.0628 12.1384 95.3035 11.959 95.5728 11.8364C95.8421 11.7139 96.134 11.651 96.4291 11.6521C96.8532 11.6511 97.2663 11.7891 97.6075 12.0455C97.9486 12.302 98.1996 12.6634 98.3233 13.0763H99.9287C99.7846 12.243 99.3529 11.4894 98.7112 10.9513C98.0696 10.4132 97.2603 10.1259 96.4291 10.1412C94.8643 10.1412 93.7575 11.063 93.2983 11.9421C92.9701 12.5286 92.8467 12.8225 92.8467 15.2112C92.8467 17.5999 92.9739 17.8938 93.2983 18.4803C93.7524 19.318 94.8643 20.2398 96.4291 20.2398C98.1579 20.2398 99.5585 19.2338 99.9287 17.3915L98.3258 17.3902Z" fill="white"/>
<path d="M103.473 20.24C104.584 20.24 105.243 19.7791 105.655 19.3596C106.19 18.7317 106.395 18.1439 106.395 16.6408C106.395 15.0871 106.19 14.5045 105.655 13.9219C105.374 13.6224 105.035 13.3857 104.659 13.227C104.284 13.0682 103.88 12.991 103.473 13.0001V14.4243C103.692 14.4223 103.908 14.4703 104.106 14.5646C104.304 14.6589 104.479 14.7972 104.618 14.9693C104.872 15.3461 104.949 15.5985 104.949 16.6446C104.949 17.6506 104.866 17.9393 104.618 18.3213C104.413 18.6152 103.96 18.8249 103.473 18.8249V20.24ZM100.547 16.6356C100.547 18.1439 100.753 18.7317 101.289 19.3544C101.7 19.7739 102.36 20.2348 103.472 20.2348V18.8107C102.977 18.8107 102.524 18.6009 102.318 18.307C102.029 17.9303 101.948 17.6364 101.948 16.6304C101.948 15.5843 102.029 15.3357 102.318 14.9551C102.458 14.782 102.634 14.6432 102.834 14.5489C103.034 14.4545 103.252 14.4071 103.472 14.41V12.9859C103.065 12.9766 102.661 13.0537 102.285 13.2125C101.909 13.3712 101.57 13.608 101.289 13.9077C100.754 14.5006 100.548 15.0858 100.548 16.6356H100.547Z" fill="white"/>
<path d="M108.006 20.1557H109.446V15.9661C109.446 15.0016 110.022 14.4125 110.845 14.4125C111.668 14.4125 112.244 14.999 112.244 15.9661V20.1557H113.684V15.9661C113.684 15.0016 114.303 14.4125 115.126 14.4125C115.908 14.4125 116.525 14.999 116.525 15.9661V20.1557H117.965V15.4625C117.97 15.1401 117.912 14.8199 117.794 14.5206C117.676 14.2213 117.501 13.9487 117.279 13.7188C117.057 13.4889 116.792 13.3061 116.5 13.1812C116.208 13.0562 115.894 12.9916 115.577 12.9909C114.589 12.9909 113.93 13.2835 113.312 13.9127C112.819 13.4104 112.325 12.9909 111.295 12.9909C110.945 12.9825 110.597 13.0532 110.276 13.198C109.956 13.3429 109.671 13.5582 109.442 13.8286V13.0764H108.006V20.1557Z" fill="white"/>
<path d="M122.742 20.1971C122.877 20.2314 123.016 20.2454 123.154 20.2385C123.525 20.2501 123.893 20.1726 124.229 20.0125C124.565 19.8524 124.859 19.614 125.088 19.3167C125.459 18.8144 125.583 18.3522 125.583 16.6341C125.583 14.8746 125.456 14.4137 125.088 13.9153C124.853 13.6251 124.558 13.3919 124.223 13.2324C123.889 13.073 123.524 12.9913 123.154 12.9934C123.027 12.9934 122.866 13.0349 122.742 13.0349V14.4176C124.06 14.4176 124.141 15.5492 124.141 16.638C124.141 17.7268 124.06 18.8183 122.742 18.8183V20.1971ZM119.9 23.0454H121.343V19.4022C121.754 19.8216 122.207 20.1142 122.742 20.1984V18.8157C121.383 18.8157 121.343 17.6414 121.343 16.6354C121.343 15.5893 121.383 14.415 122.742 14.415V13.0323C122.205 13.1411 121.715 13.4197 121.343 13.8285V13.0763H119.9V23.0454Z" fill="white"/>
<path d="M130.935 20.1558H132.334V15.3369C132.334 13.6189 131.182 13.0324 129.452 12.991V14.331C130.482 14.331 130.934 14.5899 130.934 15.2541V16.0076H129.452V17.1806H130.934V17.6842C130.934 18.7316 130.523 18.8986 129.452 18.8986V20.2399C130.193 20.1985 130.646 19.981 130.893 19.5279H130.934L130.935 20.1558ZM129.453 12.991H129.378C128.348 12.991 127.524 13.2836 126.989 14.0384L128.102 14.876C128.348 14.4993 128.719 14.331 129.459 14.331V12.991H129.453ZM129.453 16.0076H128.959C127.395 16.0076 126.612 16.9708 126.612 18.1037C126.612 19.3181 127.56 20.2399 129.124 20.2399H129.453V18.9025H129.326C128.337 18.9025 127.967 18.4843 127.967 18.0221C127.967 17.5198 128.379 17.1845 129.204 17.1845H129.449L129.453 16.0076Z" fill="white"/>
<path d="M138.388 18.1037C138.215 18.323 137.995 18.5006 137.746 18.6237C137.497 18.7468 137.224 18.8124 136.947 18.8158C135.795 18.8158 135.094 18.1866 135.094 16.6355C135.094 15.0845 135.795 14.4151 136.947 14.4151C137.227 14.4261 137.501 14.4993 137.75 14.6297C137.999 14.7602 138.217 14.9445 138.388 15.1699L139.46 14.2481C138.841 13.5347 137.978 12.991 136.905 12.991C135.259 12.991 133.654 14.0384 133.654 16.6355C133.654 19.2327 135.259 20.2399 136.905 20.2399C137.392 20.238 137.873 20.1283 138.314 19.9184C138.755 19.7085 139.146 19.4033 139.46 19.0242L138.388 18.1037Z" fill="white"/>
<path d="M140.53 13.0763H139.83V14.1665H140.53V18.4389C140.53 19.5291 141.271 20.157 142.26 20.157H143V18.8157H142.464C142.135 18.8157 141.971 18.6862 141.971 18.312V14.169H143V13.0763H141.972V10.9375H140.531L140.53 13.0763Z" fill="white"/>
</svg>
